<?xml version="1.0" standalone="no"?>
<!DOCTYPE svg PUBLIC "-//W3C//DTD SVG 1.1//EN" "http://www.w3.org/Graphics/SVG/1.1/DTD/svg11.dtd" >
<svg xmlns="http://www.w3.org/2000/svg">
<metadata>
Created by FontForge 20120731 at Mon May 15 16:39:04 2017
 By admin
</metadata>
<defs>
<font id="iconfont" horiz-adv-x="1024" >
  <font-face 
    font-family="iconfont"
    font-weight="500"
    font-stretch="normal"
    units-per-em="1024"
    panose-1="2 0 6 3 0 0 0 0 0 0"
    ascent="896"
    descent="-128"
    x-height="792"
    bbox="-0.440414 -128 2460 896"
    underline-thickness="0"
    underline-position="0"
    unicode-range="U+0078-EC68"
  />
<missing-glyph 
 />
    <glyph glyph-name=".notdef" 
 />
    <glyph glyph-name=".notdef" 
 />
    <glyph glyph-name=".null" horiz-adv-x="0" 
 />
    <glyph glyph-name="nonmarkingreturn" horiz-adv-x="341" 
 />
    <glyph glyph-name="x" unicode="x" horiz-adv-x="1001" 
d="M281 543q-27 -1 -53 -1h-83q-18 0 -36.5 -6t-32.5 -18.5t-23 -32t-9 -45.5v-76h912v41q0 16 -0.5 30t-0.5 18q0 13 -5 29t-17 29.5t-31.5 22.5t-49.5 9h-133v-97h-438v97zM955 310v-52q0 -23 0.5 -52t0.5 -58t-10.5 -47.5t-26 -30t-33 -16t-31.5 -4.5q-14 -1 -29.5 -0.5
t-29.5 0.5h-32l-45 128h-439l-44 -128h-29h-34q-20 0 -45 1q-25 0 -41 9.5t-25.5 23t-13.5 29.5t-4 30v167h911zM163 247q-12 0 -21 -8.5t-9 -21.5t9 -21.5t21 -8.5q13 0 22 8.5t9 21.5t-9 21.5t-22 8.5zM316 123q-8 -26 -14 -48q-5 -19 -10.5 -37t-7.5 -25t-3 -15t1 -14.5
t9.5 -10.5t21.5 -4h37h67h81h80h64h36q23 0 34 12t2 38q-5 13 -9.5 30.5t-9.5 34.5q-5 19 -11 39h-368zM336 498v228q0 11 2.5 23t10 21.5t20.5 15.5t34 6h188q31 0 51.5 -14.5t20.5 -52.5v-227h-327z" />
    <glyph glyph-name="back" unicode="&#xe622;" 
d="M688 640l-375 -339l375 -340q10 -9 10 -23t-10 -23.5t-24 -9.5t-24 10l-398 360q-10 11 -9 26q-1 14 9 25l398 360q10 10 24 10t24 -9.5t10 -23.5t-10 -23z" />
    <glyph glyph-name="phone" unicode="&#xe61c;" 
d="M737 738h-471q-22 0 -40.5 -17t-18.5 -36v-746q0 -20 18 -37t41 -17h471q23 0 40.5 16.5t17.5 37.5v746q0 20 -18 36.5t-40 16.5zM532 -38h-62q-12 0 -20.5 8.5t-8.5 21t8.5 21.5t20.5 9h62q12 0 21 -9t9 -21.5t-9 -21t-21 -8.5zM737 98h-471v533h471v-533z" />
    <glyph glyph-name="gift" unicode="&#xe647;" 
d="M947 640h-153q25 34 25 77q0 53 -37.5 90.5t-90.5 37.5q-82 0 -160 -90q-26 -30 -45 -63q-18 32 -44 63q-79 90 -160 90q-53 0 -90.5 -37.5t-37.5 -90.5q0 -43 25 -77h-153q-11 0 -18.5 -7.5t-7.5 -18.5v-153q0 -11 7.5 -18.5t18.5 -7.5h25v-486q0 -32 22.5 -54.5
t54.5 -22.5h717q32 0 54.5 22.5t22.5 54.5v486h25q11 0 18.5 7.5t7.5 18.5v153q0 11 -7.5 18.5t-18.5 7.5zM570 721q63 73 121 73q32 0 54.5 -22.5t22.5 -54.5t-22.5 -54.5t-54.5 -22.5h-173q16 40 52 81zM563 -77h-153v666h153v-666zM205 717q0 32 22.5 54.5t54.5 22.5
q58 0 121 -73q36 -41 52 -81h-173q-32 0 -54.5 22.5t-22.5 54.5zM51 589h307v-103h-307v103zM102 -51v486h256v-512h-230q-11 0 -18.5 7.5t-7.5 18.5zM870 -51q0 -11 -7.5 -18.5t-17.5 -7.5h-231v512h256v-486zM922 486h-308v103h308v-103z" />
    <glyph glyph-name="share" unicode="&#xe619;" 
d="M825 555q-80 0 -132 63v0h-1l-344 -151q22 -40 22 -83t-23 -83l229 -115q9 -4 12 -13.5t-1 -18.5q-7 -14 -22 -14q-6 0 -11 3l-237 118q-50 -48 -118 -48q-71 0 -121 50t-50 121t50 121t121 50q69 0 118 -48l350 153q-13 31 -13 65q0 71 50 121t121 50t121 -50t50 -120.5
t-50 -120.5t-121 -50zM199.5 506q-50.5 0 -86.5 -36t-36 -86t36 -86t86.5 -36t86 36t35.5 86t-35.5 86t-86 36zM824.5 847q-50.5 0 -86 -35.5t-35.5 -86t35.5 -86.5t86 -36t86.5 36t36 86.5t-36 86t-86.5 35.5zM825 213q71 0 121 -50t50 -120.5t-50 -120.5t-121 -50t-121 50
t-50 120.5t50 120.5t121 50zM824.5 -79q50.5 0 86.5 35.5t36 86t-36 86.5t-86.5 36t-86 -36t-35.5 -86.5t35.5 -86t86 -35.5z" />
    <glyph glyph-name="icon" unicode="&#xe630;" 
d="M539 353q0 1 -0.5 1.5l-0.5 0.5q12 6 31 29q18 23 31.5 48.5t22 56.5t6.5 65.5t-15 68.5q-28 70 -86 110.5t-146 39.5q-12 -2 -23 -3q-32 -7 -54 -16q-34 -15 -66.5 -43.5t-58 -68t-31 -85t13.5 -94.5q10 -23 24.5 -40.5t37 -37.5t32.5 -31q-64 -20 -117 -84.5
t-75 -137.5q-8 -25 -12 -48.5t0 -50.5t22 -35q12 -5 26 0q11 4 17 12.5t7 16t2.5 23t3.5 25.5q7 40 17 63q58 141 223 168q31 5 72 -4q146 -30 201 -158q11 -24 18 -59q3 -11 4 -27.5t2 -26t7 -19t18 -14.5q14 -5 27 0q43 17 9 135q-20 70 -74.5 135.5t-115.5 84.5zM407 384
q-49 -8 -92 21.5t-62 80.5t-3 100q22 72 94 100q7 3 22.5 4.5t22.5 4.5q54 0 97.5 -31t58.5 -79t-6 -106q-33 -79 -132 -95zM961 127q-37 122 -128 189q-8 6 -28.5 17t-30.5 19q-1 1 -3 5q6 6 17 16.5t14 13.5q36 45 50 97q16 54 2.5 106t-44 92t-75.5 64.5t-92 24.5
q-3 -1 -9.5 -3.5t-9.5 -3.5q-11 -7 -14.5 -23.5t4.5 -30.5q7 -8 19.5 -12.5t29 -8t24.5 -7.5q40 -17 66.5 -53t34.5 -85q7 -42 -16 -76t-55 -54l-7.5 -5l-9 -6t-8 -5.5t-8 -6.5t-6.5 -7t-6.5 -8.5t-4 -9t-2.5 -10.5t0.5 -11.5t3.5 -13.5q8 -26 34 -35q8 -1 17 -2
q1 -2 4 -4.5t4 -3.5q41 -21 66.5 -39.5t46.5 -45.5q33 -44 48 -102q3 -8 4.5 -39.5t6.5 -42.5q5 -9 15.5 -16t22.5 -5q18 2 27 17t8.5 36.5t-4 40t-8.5 37.5z" />
    <glyph glyph-name="male" unicode="&#xe603;" 
d="M354 249q-15 0 -25.5 -10.5t-10.5 -25.5t10.5 -25.5t25.5 -10.5t25.5 10.5t10.5 25.5t-10.5 25.5t-25.5 10.5zM651.5 249q-14.5 0 -25 -10.5t-10.5 -25.5t10.5 -25.5t25 -10.5t25 10.5t10.5 25.5t-10.5 25.5t-25 10.5zM935 462q-1 10 -4.5 26.5t-18.5 54.5t-36 62
q1 0 3 1.5t6 6.5t5 10.5t-2.5 14t-14.5 16.5q-3 1 -9 2.5t-16.5 3t-13.5 0.5q-2 6 -5.5 16t-17 29.5t-28.5 26.5q-1 0 -3 0.5t-7 0t-9.5 -2t-9 -6.5t-6.5 -13q-76 39 -132 49l-15 3t-36 10.5t-48.5 18t-45.5 26t-33 35.5q-1 2 -3.5 4t-11 5.5t-20.5 -2.5q-3 -3 -7 -8.5
t-9.5 -31.5t-1.5 -62l-4 -2q-20 2 -103 55q-27 7 -34 -14q-14 -49 3 -86q-63 -12 -90 -39q-1 -1 -2.5 -4t-4 -10t-2 -12.5t8 -11t21.5 -7.5q-3 -2 -8 -5.5t-19 -18t-25.5 -31.5t-22.5 -47.5t-14 -64.5q-2 -87 26 -183q-10 -24 -7 -50q4 -38 30.5 -65t63.5 -32
q24 -73 79 -129q96 -96 231 -96t231 96q56 57 80 132q36 5 62 30t32 62q6 35 -10 66q33 98 28 171zM123 229q-1 10 0 21q11 -32 26 -60q2 -3 6 -5.5t15.5 -8t20.5 0.5q1 -8 3 -16l1 -14q-29 7 -49 29.5t-23 52.5zM810 143q-22 -73 -74.5 -127.5t-123.5 -78.5q-5 16 -30.5 25
t-48.5 15.5t-23 18.5q0 -10 -22 -16.5t-47.5 -16t-31.5 -25.5q-75 26 -129 86.5t-72 139.5l-2 24q4 4 7 10q0 4 0.5 11t4 27t9.5 38t18 40.5t28 38.5q6 -1 16 -2.5t40 3.5t59 21q-27 -33 -51 -51q-1 -1 -1.5 -3.5t-1.5 -8.5t0 -10.5t6 -9t14 -5.5q4 -1 11 -2t29 -0.5t44 4
t52 14.5t57 29v-3t1.5 -7.5t5.5 -8t12 -5t22 0.5q4 1 12 2t33.5 13t52.5 33q1 -3 4.5 -6t19.5 -2t38 13q-1 -43 38 -110q17 -28 17 -77q4 -4 11 -7zM902 227q-4 -29 -25 -50.5t-49 -27.5q1 7 3 14q22 -1 33 27q18 33 35 80q7 -21 3 -43z" />
    <glyph glyph-name="close" unicode="&#xe649;" 
d="M509 882q-101 0 -193.5 -39.5t-159 -106t-106 -158.5t-39.5 -193.5t39.5 -194t106 -159t159 -106t193.5 -39.5t193.5 39.5t159 106t106 159t39.5 194t-39.5 193.5t-106 158.5t-159 106t-193.5 39.5v0zM509 -67q-92 0 -175.5 35.5t-144 96t-96 144t-35.5 175.5t35.5 175.5
t96 144t144 96t175.5 35.5t175.5 -35.5t144 -96t96 -144t35.5 -175.5t-35.5 -175.5t-96 -144t-144 -96t-175.5 -35.5v0zM757 600l-32 32l-216 -216l-216 216l-32 -32l216 -216l-216 -216l32 -32l216 216l216 -216l32 32l-216 216zM757 600z" />
    <glyph glyph-name="earth" unicode="&#xe621;" horiz-adv-x="1344" 
d="M642 -36q-109 0 -205 55q157 70 320 175q171 109 306 229q1 -23 1 -25q0 -118 -56.5 -218t-154 -158t-211.5 -58zM220 398q0 118 56.5 218t153.5 158t212 58q148 0 262 -94t148 -239q-138 -129 -330 -252q-182 -117 -346 -186q-73 61 -114.5 149t-41.5 188zM1276 782
q-45 74 -223 28q-13 -3 -19.5 -14.5t-3.5 -24.5t14.5 -19.5t24.5 -3.5q48 13 83 15t50 -2.5t19 -12.5q13 -21 -17.5 -73.5t-98.5 -123.5q-48 152 -175.5 248.5t-287.5 96.5q-99 0 -189 -39.5t-155 -106.5t-103.5 -159t-38.5 -193q0 -105 40.5 -199t113.5 -164
q-155 -56 -221 -41q-17 4 -22 12q-2 6 -3 13.5t4.5 23t14.5 33t28 43t44 54.5q9 10 8 23t-10.5 22t-23 8t-22.5 -10q-144 -163 -95 -243q19 -31 63 -41q19 -5 43 -5q92 0 248 61q124 -88 276 -88q99 0 189 39.5t155 106t103.5 159t38.5 193.5q0 36 -7 79q99 97 142 176.5
t13 128.5zM438.5 639q45.5 0 77.5 -33t32 -79.5t-32 -79.5t-77.5 -33t-77.5 33t-32 79.5t32 79.5t77.5 33zM819 215q-39 0 -66.5 -28.5t-27.5 -67.5q0 -37 23.5 -64t57.5 -32l106 80q1 10 1 16q0 39 -27.5 67.5t-66.5 28.5zM987 610l-125 127q-27 -27 -27.5 -64.5t25 -63.5
t63 -26t64.5 27z" />
    <glyph glyph-name="menu" unicode="&#xe695;" 
d="M131 804q-33 0 -56 -23t-23 -55.5t23 -55.5t56 -23t56 23t23 55.5t-23 55.5t-56 23zM289 752v-53h683v53h-683zM131 463q-33 0 -56 -23t-23 -56t23 -56t56 -23t56 23t23 56t-23 56t-56 23zM289 358h683v52h-683v-52zM131 121q-33 0 -56 -23t-23 -55.5t23 -55.5t56 -23
t56 23t23 55.5t-23 55.5t-56 23zM289 16h683v53h-683v-53z" />
    <glyph glyph-name="32remind" unicode="&#xe69c;" 
d="M106 454q9 82 49 154q39 70 101 121q10 8 11.5 21t-6.5 23.5t-21 12t-24 -7.5q-72 -58 -117 -139q-46 -83 -57 -178q-1 -13 7 -23.5t21 -11.5h4q12 0 21 8t11 20zM989 461q-11 95 -57 178q-45 81 -117 139q-11 9 -24 7.5t-21 -12t-6.5 -23.5t11.5 -21q62 -51 101 -121
q40 -72 49 -154q2 -12 11 -20t21 -8h3q14 1 22 11.5t7 23.5zM904 148l-65 50v1q-9 7 -9 20v225q0 65 -25 124q-24 57 -68 101t-101 68q-45 19 -92 23v68q0 13 -9.5 22.5t-22.5 9.5t-22.5 -9.5t-9.5 -22.5v-68q-47 -4 -92 -23q-57 -24 -101 -68t-68 -101q-25 -59 -25 -124
v-240q0 -4 -2 -5v-1l-65 -50q-22 -17 -29 -44q-7 -24 1.5 -48.5t28.5 -39.5q22 -17 50 -17h675q28 0 50 17q20 15 28.5 39.5t1.5 48.5q-7 27 -29 44zM853 63h-675q-14 0 -18.5 13t6.5 22l65 50v1q27 21 27 55v240q0 105 74.5 179.5t179.5 74.5v0q105 0 179.5 -74.5
t74.5 -179.5v-225q0 -43 32 -69l2 -2l65 -50q11 -9 6.5 -22t-18.5 -13zM587 -64h-143q-8 0 -11.5 -7t0.5 -13q30 -44 82.5 -44t82.5 44q4 6 0.5 13t-11.5 7z" />
    <glyph glyph-name="wefollow" unicode="&#xe633;" horiz-adv-x="2560" 
d="M41 404q0 -92 35.5 -175.5t96 -144t144 -96t175.5 -35.5v0h1476q92 0 175.5 35.5t144 96t96 144t35.5 175.5t-35.5 175.5t-96 144t-144 96t-175.5 35.5h-1476v0q-92 0 -175.5 -35.5t-144 -96t-96 -144t-35.5 -175.5v0zM0 404q0 100 39 191t105 157t157 105t191 39h1476
q100 0 191 -39t157 -105t105 -157t39 -191t-39 -191t-105 -157t-157 -105t-191 -39h-1476q-100 0 -191 39t-157 105t-105 157t-39 191v0zM1342 619q103 -132 141 -298l-117 199q-67 119 -177 196zM1526 624l34 -9q-30 -95 -95 -166l152 70v-34h-164v-23q-1 -43 -9 -84
l202 15v-34h-179q36 -100 191 -155l-21 -33q-162 65 -201 178q-21 -64 -69 -110q-1 -4 -17.5 -14.5t-48.5 -25t-67 -25.5l-19 31q113 36 158 95q31 45 38 101l-187 -42v34h184q8 35 8 74v18h-164v34h224q60 93 74 205zM1745 614l-25 -25q109 -75 168 -190l-57 141
q-107 111 -253 160zM1733 498l-25 -24q114 -85 175 -211l-69 162q-89 98 -212 143zM1794 362q-104 -271 -293 -480l251 293q128 254 159 550zM1849 538v-34h129v-118h-114v-34h114v-130h-140v-35h312v35h-136v129h114v34h-114v118h127v35h-147l21 8q-35 105 -104 188
l39 -120q56 -106 69 -230zM724 514q45 -44 45 -107v-3v-2q0 -62 -42 -106q-43 -46 -105 -48q-16 -39 -55 -64q13 15 13 16v0h-1q-9 0 -15 7t-6 16v1q0 8 6 15q18 18 26 43v-1q3 10 4 21q-3 -13 0 -14l5 3q3 3 10 3v0h8l1 -1q45 0 76 33q32 33 32 78.5t-32 78.5t-77.5 33
t-76.5 -33q-33 -33 -33 -79q0 -49 36 -82q7 -7 7 -16v-1q0 -8 -5 -14q-7 -7 -16 -8h-1q-8 0 -14 6q-36 32 -47 79l-4 25v11v1v3q0 63 45 107q44 45 108 45t108 -45v-1zM353 281q36 -94 113 -155q-44 40 -44 34v-2q-1 -10 -8 -16q-3 -2 -7 -3l-2 -1h-2.5h-2.5h-1q-9 0 -15 7
q-73 84 -92 194v-1q-5 33 -5 66q0 73 26 141q39 103 126 171q-49 -46 -45 -46h2v0h3h6q6 -1 10 -7q7 -5 7 -14v-2q0 -8 -6 -14q-64 -74 -81 -171v0q-4 -29 -4 -57q0 -65 23 -125zM847 663q72 -84 91 -194l1 1q4 -33 4 -66q0 -73 -26 -141q-39 -103 -126 -171q46 45 41 46
l-1 -1q-1 0 -1 1v-1q-8 0 -14 6q-7 6 -8 16v1q0 8 6 14q59 68 79 155q2 10 0 1q6 37 6 72v2q0 27 -4 53q-6 42 -23 82q0 6 -13.5 30.5t-30.5 47.5q-18 22 0 1q-22 25 -44 44q9 -6 9 -4q-4 9 -50 42q-11 8 -22 15q87 -75 87 -69v2q0 4 1 8q3 8 10 12q0 3 11 3h2q9 -1 15 -9v1
zM459 540q1 -2 1 -5q0 -6 -5 -12q-38 -53 -38 -120q0 -33 11 -65q16 -49 54 -86q-22 24 -22 18q0 -2 -1 -4q-2 -10 -10 -15q-4 -3 -11 -3v0q-6 0 -10 2q-7 4 -11 11q-43 60 -43 142q0 81 47 147q5 7 15 8h2q7 0 12 -4q8 -6 9 -15v1zM808 257q-6 -9 -17 -9h-1q-7 0 -13 4
q-8 6 -9 16v2q0 7 4 13q39 53 39 119v2v0q0 33 -10 65q-15 47 -52 82q19 -20 20 -15v5q2 10 10 15q4 4 11 4q2 0 4 -1q10 -2 15 -10q46 -64 46 -145t-47 -147v0z" />
    <glyph glyph-name="Man" unicode="&#xe645;" 
d="M373 373zM320 373q0 -22 15.5 -37.5t37.5 -15.5t38 15.5t16 37.5t-16 38t-38 16t-37.5 -16t-15.5 -38zM651 373zM597 373q0 -22 16 -37.5t38 -15.5t37.5 15.5t15.5 37.5t-15.5 38t-37.5 16t-38 -16t-16 -38zM616 149q-13 -26 -43.5 -45t-60.5 -19t-60.5 19t-44.5 45l-4 9
l-38 -19l4 -9q18 -36 60 -62t83 -26t82.5 26t60.5 62l4 9l-38 20zM896 468v23v0q0 87 -43 163.5t-116.5 124.5t-160.5 53v64l-142 -13q-127 -13 -216.5 -112.5t-89.5 -226.5v-76q-26 -3 -45 -25t-19 -48v-54v0q0 -45 31.5 -81.5t75.5 -44.5q3 -52 33 -113t69 -96l78 -67
q27 -28 74 -47t85.5 -19t85.5 19t75 47l78 68q39 34 70 95t34 113q44 8 75.5 44.5t31.5 81.5v0v54q0 26 -19 48t-45 25zM438 841l95 10v-62h22q123 0 210.5 -87.5t87.5 -210.5v-16l-68 50l-42 109l-7 4q-43 18 -106 31.5t-110 13.5h-8h-8q-46 0 -109 -13.5t-106 -31.5l-7 -4
l-43 -109l-68 -50v69q0 111 78 198t189 99zM917 341q0 -35 -25 -60t-60 -25h-21v-21v0q0 -49 -26 -106.5t-63 -90.5l-79 -69q-23 -23 -61.5 -39t-70 -16t-70 16t-61.5 39l-78 68q-37 32 -63 90t-26 107v1v21h-21q-35 0 -60 25t-25 60v54q0 13 9 22.5t22.5 9.5t23 -9.5
t9.5 -22.5v-75h42v75q0 26 -16 46l77 58l42 104q39 15 95 26t98 11h3h3q42 0 98.5 -11t95.5 -26l42 -105l77 -57q-17 -20 -17 -46v-75h42v75q0 13 9.5 22.5t23 9.5t22.5 -9.5t9 -22.5v-54z" />
    <glyph glyph-name="amy-game" unicode="&#xec68;" 
d="M906 31q-23 0 -43 5.5t-39.5 20t-31 25.5t-32.5 33q-31 33 -50 49q-55 49 -142 49h-24h-21h-22h-21h-24q-87 0 -142 -49q-19 -16 -50 -49q-21 -22 -32.5 -33t-31 -25.5t-39.5 -20t-43 -5.5q-39 0 -63 27q-63 70 -33 338q10 90 35 158.5t59.5 107t71.5 57t76 18.5
q16 0 32.5 -4.5t26 -9.5t26.5 -16q24 -14 39.5 -21.5t49.5 -15.5t74 -8t74 8t49.5 15.5t39.5 21.5q17 11 26.5 16t26 9.5t32.5 4.5q39 0 76 -18.5t71.5 -57t59.5 -107t35 -158.5q30 -268 -33 -338q-24 -27 -63 -27zM568 246q100 0 164 -58q19 -17 51 -51q27 -27 40.5 -39.5
t36 -23.5t46.5 -11t39 17q53 59 25 312q-9 83 -31 146t-52 98t-61.5 52t-65.5 17q-26 0 -69 -25q-25 -16 -42 -24t-55 -17t-82 -9t-82 9t-55 17t-42 24q-43 25 -69 25q-34 0 -65.5 -17t-61.5 -52t-52 -98t-31 -146q-28 -253 25 -312q15 -17 39 -17t46.5 11t36 23.5
t40.5 39.5q32 34 51 51q24 21 49 34t51.5 17.5t44 5.5t44.5 0h20h22h20q16 1 25 1zM812 531q0 -20 -14.5 -34.5t-34.5 -14.5t-34 14.5t-14 34.5t14 34t34 14t34.5 -14t14.5 -34zM812 337q0 -20 -14.5 -34t-34.5 -14t-34 14t-14 34t14 34.5t34 14.5t34.5 -14.5t14.5 -34.5z
M860 386q-20 0 -34 14t-14 34t14 34t34 14t34 -14t14 -34t-14 -34t-34 -14zM667 386q-20 0 -34.5 14t-14.5 34t14.5 34t34.5 14t34 -14t14 -34t-14 -34t-34 -14zM387 466h-81v81q0 13 -9.5 22.5t-22.5 9.5t-22.5 -9.5t-9.5 -22.5v-81h-81q-13 0 -22.5 -9.5t-9.5 -22.5
t9.5 -22.5t22.5 -9.5h81v-81q0 -13 9.5 -22.5t22.5 -9.5t22.5 9.5t9.5 22.5v81h81q13 0 22.5 9.5t9.5 22.5t-9.5 22.5t-22.5 9.5z" />
    <glyph glyph-name="be-careful" unicode="&#xe6ad;" 
d="M496.5 19q-101.5 0 -188 50.5t-136.5 137t-50 188t50 188t136.5 136.5t188 50t188 -50t136.5 -136.5t50 -188t-50 -188t-136.5 -137t-188 -50.5zM496.5 715q-87.5 0 -161.5 -43t-117 -117t-43 -161t43 -161t117 -117t161.5 -43t161 43t116.5 117t43 161t-43 161
t-116.5 117t-161 43zM456 569q0 17 12 28.5t28.5 11.5t28.5 -11.5t12 -28.5t-12 -28.5t-28.5 -11.5t-28.5 11.5t-12 28.5zM496.5 179q-11.5 0 -19 8t-7.5 19v242q0 11 7.5 19t19 8t19 -8t7.5 -19v-242q0 -11 -7.5 -19t-19 -8z" />
    <glyph glyph-name="female" unicode="&#xe6a6;" 
d="M672 -96q-13 0 -22.5 9.5t-9.5 22.5t9.5 22.5t22.5 9.5q31 0 49.5 1t40 4t34 8.5t25.5 15.5t20 25t13 36.5t8 49.5t2 65v243q0 145 -103.5 248.5t-248.5 103.5t-248.5 -103.5t-103.5 -248.5v-243q0 -37 2 -65t8 -49.5t13 -36.5t20 -25t25.5 -15.5t34 -8.5t40 -4t49.5 -1
q13 0 22.5 -9.5t9.5 -22.5t-9.5 -22.5t-22.5 -9.5q-47 0 -80.5 4t-64.5 14.5t-50 29.5t-33.5 49t-21 72t-6.5 100v243q0 172 122 294t294 122t294 -122t122 -294v-243q0 -58 -6.5 -100t-21 -72t-33.5 -49t-50 -29.5t-64.5 -14.5t-80.5 -4zM512 2q-125 0 -213.5 93t-88.5 225
v96q0 13 9 21.5t21 8.5q53 0 100 6t73.5 12.5t68.5 18.5q70 19 115 27q25 5 49.5 7.5t43 3t35 0t28.5 -1.5t20.5 -2.5t13.5 -2l5 -0.5q10 -3 16 -11.5t6 -19.5v-163q0 -132 -88.5 -225t-213.5 -93zM270 386v-66q0 -107 71 -182.5t171 -75.5t171 75.5t71 182.5v138
q-61 7 -146 -8q-34 -6 -109 -26q-121 -35 -229 -38z" />
    <glyph glyph-name="follow" unicode="&#xe6c1;" 
d="M932 232h-150v151q0 9 -9 9h-38q-9 0 -9 -9v-151h-150q-10 0 -10 -9v-37q0 -10 10 -10h150v-150q0 -9 9 -9h38q9 0 9 9v150h150q10 0 10 10v37q0 9 -10 9zM346 696q84 0 146 -59l20 -20l19 20q62 59 146 59q86 0 147.5 -61.5t61.5 -147.5q0 -25 -10 -53q-3 -8 -3 -13
q0 -11 8.5 -19.5t20.5 -8.5q17 0 27 23q4 8 8.5 31.5t4.5 39.5q0 110 -77.5 187.5t-187.5 77.5h-1q-38 0 -86 -17t-78 -41q-30 24 -78 41t-86 17h-1q-110 0 -187.5 -77.5t-77.5 -187.5q0 -53 33.5 -114.5t79 -112t106.5 -103t101 -81.5t78 -54l1 -1q10 -4 15 -4q12 0 20 8
t8 20q0 15 -13 23q-40 26 -84 58.5t-97.5 79t-95 91.5t-69.5 96.5t-28 93.5q0 86 61.5 147.5t147.5 61.5z" />
    <glyph glyph-name="user" unicode="&#xe612;" 
d="M510 211q-90 0 -166 44.5t-120.5 120.5t-44.5 166t44.5 166t120.5 120t166 44t166 -44t120 -120t44 -166t-44 -166t-120 -120.5t-166 -44.5zM510 808q-110 0 -187.5 -77.5t-77.5 -187t77.5 -187t187.5 -77.5t187.5 77.5t77.5 187.5v0q0 110 -77.5 187.5t-187.5 77.5v-1z
M85 -111h-3q-13 1 -21 10t-8 22v3q10 134 89.5 241t202.5 155q-1 0 2 0h3q14 0 23.5 -9.5t9.5 -22.5q0 -19 -17 -29q-107 -43 -175 -136.5t-75 -210.5q-1 -8 -10 -15.5t-21 -7.5zM935 -111q-12 0 -21 8t-10 21q-8 87 -50.5 161t-110.5 124q2 -1 2 0.5t-1 6.5t-1 9
q0 13 9.5 23t23.5 10q12 0 22 -9q76 -61 121.5 -147.5t50.5 -186.5l-1 12v0q0 -13 -8.5 -22t-20.5 -10h-5z" />
    <glyph glyph-name="hand" unicode="&#xe673;" 
d="M864 348q41 45 62 95t24 87.5t-2.5 74.5t-10.5 51t-8 20q-67 125 -179 150q-54 12 -104 -1t-81 -38q-23 -18 -59 -53q-20 20 -43.5 37.5t-67 34t-86.5 14.5q-17 0 -38 -5t-53.5 -19t-65.5 -46t-57 -78q-4 -8 -9 -23.5t-10.5 -56.5t-0.5 -80.5t31 -88.5t75 -87l-24 -24
q-21 -21 -18 -54q2 -29 24 -52q22 -24 51 -27q3 -29 24 -52q22 -24 51 -27q3 -29 24 -51q22 -24 51 -27q3 -29 24 -52q25 -28 59 -28v0q25 0 42 18l5 5q33 -29 67 -29q17 0 32 7q44 19 47 88q36 5 57 30q18 20 21 50q37 3 59 27q21 23 25 60q35 3 62 36q23 27 23 58.5
t-22 54.5zM593 748q26 20 66 29.5t81 0.5q92 -20 147 -125q3 -6 7 -17.5t8.5 -42t1.5 -60.5t-21 -71.5t-52 -78.5q-16 17 -173 180l-17 17l-16 -18q-28 -30 -61 -59.5t-47 -35.5q-32 -13 -59.5 -13t-47 10t-31.5 20t-21 22q170 191 235 242zM196 240q-9 11 -10 23q-1 9 3 13
l115 115q3 3 10 3v0q13 0 25 -12q9 -11 10 -23q1 -6 -1 -10l-2 -2l-114 -114l-4 -4q-6 -3 -15 0t-17 11zM272 161q-17 18 -10 33l2 2l114 114l4 4q3 2 7 2v0q13 0 25 -13q10 -10 11 -23q0 -6 -2 -10l-1 -1l-115 -115q-2 -2 -3 -4q-4 -1 -8 -1q-13 0 -24 12zM347 83
q-16 17 -10 32l2 2l115 114q1 2 3 4q3 2 7 2q13 0 25 -13q16 -17 9 -33l-1 -1l-115 -114q-1 -2 -3 -4q-3 -2 -7 -2q-14 0 -25 13zM447 -9q-13 0 -25 13q-10 10 -11 23q0 5 1 10l2 1l115 115q2 1 3 4q3 1 7 1q14 0 25 -12q10 -11 11 -23q1 -9 -4 -14l-114 -114q-4 -4 -10 -4z
M575 -12q-21 -9 -46 11l62 62l1 -10q2 -15 -1.5 -36t-15.5 -27zM829 266q-10 -11 -21 -16t-16 -2l-3 3l1 1l-126 130l-33 -35l125 -129q1 -31 -13 -46q-11 -12 -34 -12l2 2l-132 137l-33 -35l125 -130v-2q4 -24 -9 -39t-46 -14h-8q16 20 14 48q-3 30 -24 52q-21 24 -51 27
q-3 29 -24 52t-51 26v1q-3 29 -24 52t-52 26v1q-2 29 -23 52q-22 23 -52.5 26t-49.5 -16l-56 -56q-42 31 -65.5 72t-28 73t-0.5 66.5t8 47t8 21.5q20 38 46.5 64t53 37.5t43.5 15.5t31 5q83 3 161 -72q-82 -84 -179 -195l23 -21q13 -20 31 -36.5t47 -30t62.5 -12t77.5 15.5
q34 14 108 90q146 -151 190 -198q19 -20 -3 -47z" />
    <glyph glyph-name="pinglun" unicode="&#xe60b;" 
d="M693 432h-369q-8 0 -14 -6t-6 -14.5t6 -14.5t14 -6h369q9 0 15 6t6 14.5t-6 14.5t-15 6zM796 617h-574q-26 0 -44 -18t-18 -44v-451q0 -26 18 -44t44 -18h123v-102q0 -9 6 -15t14 -6q3 0 6 1q12 -2 19 6l117 116h289q26 0 44 18t18 44v451q0 26 -18 44t-44 18zM817 124
q0 -17 -12 -29t-29 -12h-288v-3q-3 -1 -4 -3l-98 -98v84q0 8 -6 14t-15 6h-123q-17 0 -29 12t-12 29v411q0 17 12 29t29 12h534q17 0 29 -12t12 -29v-411zM693 289h-369q-8 0 -14 -6.5t-6 -15t6 -14.5t14 -6h369q9 0 15 6.5t6 14.5t-6 14.5t-15 6.5z" />
    <glyph glyph-name="star" unicode="&#xe604;" 
d="M322 264l1 -1zM306 264zM531 226zM314 234zM892 405q-3 12 -13 19t-22 7l-234 5l-77 219q-9 25 -35 25q-12 0 -22 -7t-13 -18l-77 -219l-234 -5q-12 0 -22 -7t-13 -19q-9 -25 13 -41l186 -140l-68 -221q-7 -26 14.5 -41.5t43.5 -0.5l192 132l192 -132q10 -7 22 -7t22 7
q21 16 13 42l-67 221l186 140q21 16 13 41zM860 388l-195 -146q-8 -6 -5 -17l71 -231q1 -5 -2.5 -7.5t-7.5 -0.5l-201 139q-4 2 -9 2t-9 -2l-201 -139q-4 -2 -7.5 0.5t-2.5 7.5l71 231q3 11 -6 17l-195 146q-3 3 -2 7.5t6 4.5l245 5q11 1 14 11l81 228q1 4 6 4t6 -4l81 -228
q3 -10 14 -11l245 -5q4 0 5.5 -4.5t-2.5 -7.5v0z" />
    <glyph glyph-name="zhuyi" unicode="&#xe613;" 
d="M512 -128q-104 0 -199 40.5t-163.5 109t-109 163.5t-40.5 199t40.5 199t109 163.5t163.5 109t199 40.5t199 -40.5t163.5 -109t109 -163.5t40.5 -199t-40.5 -199t-109 -163.5t-163.5 -109t-199 -40.5v0zM512 823q-89 0 -170 -35t-140 -94t-94 -140t-35 -170t35 -170
t94 -140t140 -94t170 -35t170 35t140 94t94 140t35 170t-35 170t-94 140t-140 94t-170 35v0zM457 623q0 23 16 39t39 16t39 -16t16 -39t-16 -39t-39 -16t-39 16t-16 39v0zM512 90q-15 0 -26 11t-11 26v330q0 16 11 26.5t26 10.5t26 -10.5t11 -26.5v-330q0 -15 -11 -26
t-26 -11v0z" />
    <glyph glyph-name="xiazai" unicode="&#xe63b;" 
d="M945.5 317q-14.5 0 -25 -10.5t-10.5 -25.5v-202h-763v202q0 15 -10.5 25.5t-25.5 10.5t-25.5 -10.5t-10.5 -25.5v-238q0 -15 10.5 -25.5t25.5 -10.5h834q15 0 25.5 10.5t10.5 25.5v238q0 15 -10.5 25.5t-25 10.5zM354.5 455.5q-10.5 -10.5 -10.5 -25.5t10 -25l148 -179v0
q11 -11 27 -10h1q15 0 26 10v1l147 178q11 10 11 25t-10.5 25.5t-25.5 10.5t-26 -10v-1l-88 -106v409q0 15 -10.5 25.5t-25.5 10.5t-25.5 -10.5t-10.5 -25.5v-407l-86 105v0q-11 10 -26 10t-25.5 -10.5z" />
    <glyph glyph-name="iconlove" unicode="&#xe615;" 
d="M712 710q77 0 131.5 -54.5t54.5 -131.5q0 -1 -1 -5q-1 -5 -1 -8l-1 -23q-3 -16 -11 -35l-1 -2v0q-22 -49 -70.5 -109.5t-109.5 -117t-103.5 -92.5t-82.5 -67q-36 28 -74.5 60.5t-93.5 83t-103.5 105.5t-77.5 102l-1 2v1q-2 2 -5 8q-3 5 -4 7l-1 2q-7 13 -12 25
q-10 27 -11 45q1 2 1 5v1v2q0 4 -1 10q0 77 54.5 131.5t131.5 54.5q50 0 92.5 -25t68.5 -69l35 -61l35 61q25 44 67.5 69t93.5 25v0zM712 751q-62 0 -114 -31t-82 -84q-30 53 -82 84t-114 31q-94 0 -160.5 -66.5t-66.5 -160.5q0 -2 0.5 -6t0.5 -6v-2v-3q0 -27 14 -61
q5 -13 13 -29q1 -2 2 -3q10 -18 10 -19q30 -48 80 -105t101 -104t97.5 -87.5t75.5 -62.5l30 -23q13 10 35 27t82.5 68.5t110.5 100t101.5 112t73.5 114.5q0 1 0.5 1.5l0.5 0.5q16 39 16 70v0q0 2 0.5 8t0.5 9q0 94 -66.5 160.5t-159.5 66.5v0z" />
    <glyph glyph-name="pinglun1" unicode="&#xe605;" 
d="M328 491q-19 0 -32.5 -14t-13.5 -34t13.5 -34t32.5 -14t32.5 14t13.5 34t-13.5 34t-32.5 14zM511.5 491q-19.5 0 -33 -14t-13.5 -34t13.5 -34t33 -14t32.5 14t13 34t-13 34t-32.5 14zM695 491q-19 0 -32.5 -14t-13.5 -34t13.5 -34t32.5 -14t32.5 14t13.5 34t-13.5 34
t-32.5 14zM787 729h-551q-38 0 -65 -28t-27 -67v-358q0 -40 27.5 -70.5t66.5 -30.5h140l125 -131q8 -8 17 0q74 84 122 131h143q39 0 66.5 30.5t27.5 70.5v358q0 39 -27 67t-65 28zM833 276q0 -20 -14.5 -37t-33.5 -17h-141q-7 0 -15.5 -4.5t-12.5 -8.5l-4 -5l-99 -102
l-99 102q-19 18 -35 18h-141q-19 0 -33.5 17t-14.5 37v358q0 19 13.5 33t32.5 14h551q19 0 32.5 -14t13.5 -33v-358z" />
  </font>
</defs>
</svg>
